<svg width="1440" height="1042" viewBox="0 0 1440 1042" fill="none" xmlns="http://www.w3.org/2000/svg">
<path d="M-38.0013 176.172C-116.41 259.569 -45.3737 523.831 -17.0543 592.554C46.4483 747.468 -59.4249 729.441 -62.3864 870.058C-65.3479 1010.68 221.818 1088.62 487.178 1009.76C807.191 914.661 687.064 865.38 1121.09 880.757C1555.12 896.133 1600.57 511.195 1573.12 465.768C1549.86 427.273 1600.47 260.877 1531.93 233.54C1499.63 220.658 1499.93 111.04 1388.86 134.227C1267.4 159.581 1163.79 -19.7107 1039.16 70.2807C914.537 160.272 908.119 -47.7971 730.135 11.7485C552.151 71.2942 347.244 3.61689 244.927 57.5401C48.8699 160.866 59.1873 72.8011 -38.0013 176.172Z" fill="url(#paint0_linear)"/>
<defs>
<linearGradient id="paint0_linear" x1="-80.4527" y1="217.598" x2="1861.85" y2="724.308" gradientUnits="userSpaceOnUse">
<stop stop-color="#0470DC"/>
<stop offset="1" stop-color="#70DDFF"/>
</linearGradient>
</defs>
</svg>
