<svg width="19" height="22" viewBox="0 0 19 22" fill="none" xmlns="http://www.w3.org/2000/svg">
<path d="M15.1926 11.1494C15.1614 9.43066 15.9426 8.10254 17.5364 7.16504C16.6614 5.91504 15.3333 5.21191 13.552 5.05566C13.0833 5.02441 12.552 5.08691 11.9583 5.24316C11.6145 5.33691 11.1458 5.49316 10.552 5.71191C9.95825 5.93066 9.56763 6.04004 9.38013 6.04004C9.19263 6.04004 8.77075 5.91504 8.1145 5.66504C7.08325 5.29004 6.31763 5.10254 5.81763 5.10254C4.91138 5.13379 4.03638 5.38379 3.19263 5.85254C2.38013 6.32129 1.72388 7.00879 1.22388 7.91504C0.692627 8.88379 0.427002 10.04 0.427002 11.3838C0.427002 12.6025 0.645752 13.8682 1.08325 15.1807C1.33325 15.8682 1.69263 16.6338 2.16138 17.4775C2.75513 18.5088 3.34888 19.3213 3.94263 19.915C4.72388 20.6963 5.45825 21.0713 6.14575 21.04C6.4895 21.04 6.9895 20.915 7.64575 20.665C8.45825 20.3525 9.13013 20.1963 9.66138 20.1963C10.1926 20.1963 10.8333 20.3369 11.5833 20.6182C12.2708 20.8994 12.8333 21.04 13.2708 21.04C14.2708 21.0088 15.2864 20.29 16.3176 18.8838C17.0989 17.79 17.677 16.6494 18.052 15.4619C16.802 14.8682 15.9583 13.9932 15.5208 12.8369C15.2708 12.2744 15.1614 11.7119 15.1926 11.1494ZM12.5208 3.41504C13.3645 2.41504 13.7395 1.29004 13.6458 0.0400391C13.0833 0.0712891 12.5051 0.243164 11.9114 0.555664C11.3176 0.868164 10.8333 1.24316 10.4583 1.68066C9.552 2.68066 9.16138 3.80566 9.28638 5.05566C10.4426 5.14941 11.5208 4.61816 12.5208 3.46191V3.41504Z" fill="white"/>
</svg>
