<svg width="19" height="22" viewBox="0 0 19 22" fill="none" xmlns="http://www.w3.org/2000/svg">
<path d="M3.64557 8.10254V13.54C3.64557 13.915 3.52057 14.2275 3.27057 14.4775C3.02057 14.7275 2.70807 14.8525 2.33307 14.8525C1.95807 14.8525 1.62994 14.7275 1.34869 14.4775C1.06744 14.2275 0.926819 13.915 0.926819 13.54V8.10254C0.926819 7.75879 1.06744 7.46191 1.34869 7.21191C1.62994 6.96191 1.94244 6.83691 2.28619 6.83691C2.66119 6.83691 2.97369 6.96191 3.22369 7.21191C3.50494 7.46191 3.64557 7.75879 3.64557 8.10254ZM4.11432 15.4619C4.11432 15.8682 4.25494 16.2119 4.53619 16.4932C4.81744 16.7432 5.14557 16.8682 5.52057 16.8682H6.45807V19.7275C6.45807 20.29 6.67682 20.665 7.11432 20.8525C7.55182 21.0713 7.97369 21.0713 8.37994 20.8525C8.81744 20.6338 9.03619 20.2588 9.03619 19.7275V16.8682H10.8174V19.7275C10.8174 20.29 11.0206 20.665 11.4268 20.8525C11.8643 21.0713 12.3018 21.0713 12.7393 20.8525C13.1768 20.665 13.3956 20.29 13.3956 19.7275V16.8682H14.3331C14.7081 16.8682 15.0362 16.7432 15.3174 16.4932C15.5987 16.2119 15.7393 15.8682 15.7393 15.4619V7.07129H4.11432V15.4619ZM15.7393 6.60254H4.06744C4.06744 5.63379 4.33307 4.74316 4.86432 3.93066C5.42682 3.08691 6.16119 2.43066 7.06744 1.96191L6.17682 0.321289C6.11432 0.196289 6.12994 0.118164 6.22369 0.0869141C6.34869 0.0244141 6.42682 0.0400391 6.45807 0.133789L7.39557 1.77441C8.20807 1.43066 9.05182 1.25879 9.92682 1.25879C10.8331 1.25879 11.6768 1.43066 12.4581 1.77441L13.3956 0.133789C13.4268 0.0400391 13.4893 0.0244141 13.5831 0.0869141C13.7081 0.118164 13.7393 0.196289 13.6768 0.321289L12.7862 1.96191C13.6924 2.43066 14.4112 3.08691 14.9424 3.93066C15.4737 4.74316 15.7393 5.63379 15.7393 6.60254ZM7.77057 4.02441C7.77057 3.89941 7.72369 3.79004 7.62994 3.69629C7.53619 3.57129 7.41119 3.50879 7.25494 3.50879C7.12994 3.50879 7.02057 3.57129 6.92682 3.69629C6.83307 3.79004 6.78619 3.89941 6.78619 4.02441C6.78619 4.14941 6.83307 4.25879 6.92682 4.35254C7.02057 4.44629 7.12994 4.49316 7.25494 4.49316C7.41119 4.49316 7.53619 4.44629 7.62994 4.35254C7.72369 4.25879 7.77057 4.14941 7.77057 4.02441ZM13.0674 4.02441C13.0674 3.89941 13.0206 3.79004 12.9268 3.69629C12.8331 3.57129 12.7237 3.50879 12.5987 3.50879C12.4737 3.50879 12.3487 3.57129 12.2237 3.69629C12.1299 3.79004 12.0831 3.89941 12.0831 4.02441C12.0831 4.14941 12.1299 4.25879 12.2237 4.35254C12.3487 4.44629 12.4737 4.49316 12.5987 4.49316C12.7237 4.49316 12.8331 4.44629 12.9268 4.35254C13.0206 4.25879 13.0674 4.14941 13.0674 4.02441ZM17.5206 6.83691C17.1768 6.83691 16.8643 6.96191 16.5831 7.21191C16.3331 7.46191 16.2081 7.77441 16.2081 8.14941V13.54C16.2081 13.915 16.3331 14.2275 16.5831 14.4775C16.8643 14.7275 17.1768 14.8525 17.5206 14.8525C17.8956 14.8525 18.2237 14.7275 18.5049 14.4775C18.7862 14.2275 18.9268 13.915 18.9268 13.54V8.10254C18.9268 7.75879 18.7862 7.46191 18.5049 7.21191C18.2237 6.96191 17.8956 6.83691 17.5206 6.83691Z" fill="white"/>
</svg>
