<svg width="1381" height="615" viewBox="0 0 1381 615" fill="none" xmlns="http://www.w3.org/2000/svg">
<g clip-path="url(#clip0)">
<path d="M230.051 313.623C236.696 306.407 241.632 297.922 244.526 288.74C247.42 279.559 248.204 269.895 246.826 260.401C245.448 250.907 241.94 241.804 236.539 233.707C231.137 225.61 223.968 218.708 215.515 213.465C219.886 207.038 222.203 199.548 222.186 191.898C222.186 170.269 204.129 152.733 181.809 152.733C172.997 152.791 164.445 155.574 157.45 160.661C150.455 165.748 145.399 172.862 143.048 180.923C137.796 172.375 130.282 165.278 121.252 160.333C112.221 155.389 101.986 152.769 91.5603 152.733C58.3549 152.733 31.432 178.792 31.432 211.105C31.4267 217.975 32.6725 224.794 35.1143 231.262C33.8869 231.17 32.6756 231.078 31.432 231.078C4.76749 231.078 -16.8419 252.048 -16.8419 277.922C-16.8419 279.455 -16.745 281.095 -16.5835 282.659C-27.4331 287.277 -36.6356 294.787 -43.0724 304.276C-49.5092 313.765 -52.903 324.824 -52.8413 336.11C-52.8413 368.3 -25.9992 394.359 7.09317 394.359C10.575 394.357 14.05 394.064 17.4779 393.485C17.3003 395.416 17.1872 397.378 17.1872 399.356C17.1872 435.409 47.3079 464.641 84.4379 464.641C98.1985 464.634 111.612 460.539 122.795 452.929C131.786 460.423 143.341 464.558 155.306 464.564C183.069 464.564 205.55 442.736 205.55 415.788C205.55 414.623 205.454 413.474 205.373 412.339H205.55C235.267 412.339 259.364 388.948 259.364 360.115C259.409 350.565 256.702 341.185 251.535 332.991C246.369 324.796 238.939 318.098 230.051 313.623V313.623Z" fill="url(#paint0_linear)"/>
<path d="M120.647 244.292H112.782V607.917H120.647V244.292Z" fill="#DCE7FF"/>
<path d="M176.558 285.332L112.068 351.431L117.839 356.503L182.329 290.404L176.558 285.332Z" fill="#DCE7FF"/>
<path d="M50.429 360.688L45.7395 366.681L112.605 413.813L117.294 407.82L50.429 360.688Z" fill="#DCE7FF"/>
<path d="M145.406 386.794C135.305 376.595 129.675 363.129 129.659 349.132C129.716 339.475 132.408 329.998 137.475 321.624C142.542 313.25 149.81 306.265 158.569 301.352C154.64 295.943 152.533 289.529 152.528 282.958C152.528 264.564 168.84 249.542 188.98 249.542C196.753 249.47 204.346 251.767 210.64 256.097C216.934 260.426 221.598 266.559 223.946 273.592C228.914 266.175 235.785 260.078 243.915 255.871C252.045 251.664 261.167 249.486 270.427 249.542C300.419 249.542 324.741 271.83 324.741 299.329C324.755 305.205 323.639 311.033 321.447 316.528C322.545 316.451 323.643 316.375 324.774 316.375C348.838 316.375 368.38 334.263 368.38 356.336C368.378 357.688 368.302 359.039 368.154 360.383C377.745 364.071 385.968 370.378 391.781 378.504C397.594 386.63 400.737 396.21 400.81 406.032C400.81 433.455 376.584 455.666 346.674 455.666C343.535 455.665 340.401 455.414 337.306 454.915C337.468 456.57 337.565 458.241 337.565 459.927C337.565 490.692 310.383 515.632 276.839 515.632C264.542 515.638 252.521 512.17 242.309 505.668C234.034 512.115 223.653 515.627 212.947 515.601C187.882 515.601 167.565 496.961 167.565 473.984C167.565 472.987 167.661 472.006 167.726 471.041H167.565C140.739 471.041 118.984 451.113 118.984 426.48C119.047 418.184 121.556 410.07 126.225 403.057C130.895 396.043 137.539 390.41 145.406 386.794V386.794Z" fill="url(#paint1_linear)"/>
<path d="M253.243 328.53H243.423V638.077H253.243V328.53Z" fill="#DCE7FF"/>
<path d="M194.598 361.608L187.586 368.132L245.823 424.517L252.835 417.992L194.598 361.608Z" fill="#DCE7FF"/>
<path d="M306.896 425.663L246.521 465.877L252.161 473.506L312.537 433.292L306.896 425.663Z" fill="#DCE7FF"/>
<path d="M349.516 305.836H343.621V326.346H349.516V305.836Z" fill="#70DDFF"/>
<path d="M349.516 300.241H294.507V305.836H349.516V300.241Z" fill="#70DDFF"/>
<path d="M345.139 360.835C356.173 360.835 365.117 352.346 365.117 341.874C365.117 331.401 356.173 322.912 345.139 322.912C334.106 322.912 325.161 331.401 325.161 341.874C325.161 352.346 334.106 360.835 345.139 360.835Z" fill="url(#paint2_linear)"/>
<path d="M345.139 356.282C355.308 356.282 363.551 348.459 363.551 338.808C363.551 329.157 355.308 321.333 345.139 321.333C334.971 321.333 326.728 329.157 326.728 338.808C326.728 348.459 334.971 356.282 345.139 356.282Z" fill="#FFEB3B"/>
<path d="M300.402 246.162H294.507V524.009H300.402V246.162Z" fill="#70DDFF"/>
<path d="M297.011 249.473C305.11 249.473 311.676 243.241 311.676 235.554C311.676 227.867 305.11 221.636 297.011 221.636C288.912 221.636 282.346 227.867 282.346 235.554C282.346 243.241 288.912 249.473 297.011 249.473Z" fill="#4F79A4"/>
<path d="M373.096 320.751H318.087V326.346H373.096V320.751Z" fill="#70DDFF"/>
<path d="M296.672 604.208C286.351 604.208 277.921 606.554 277.921 596.759V525.557C277.934 520.839 279.913 516.318 283.426 512.981C286.939 509.644 291.701 507.761 296.672 507.745V507.745C301.642 507.761 306.404 509.644 309.917 512.981C313.43 516.318 315.41 520.839 315.422 525.557V596.759C315.422 606.554 306.992 604.208 296.672 604.208Z" fill="#70DDFF"/>
<path d="M1287.84 305.836H1281.95V326.346H1287.84V305.836Z" fill="#70DDFF"/>
<path d="M1336.96 300.241H1281.95V305.836H1336.96V300.241Z" fill="#70DDFF"/>
<path d="M1286.31 360.835C1297.34 360.835 1306.29 352.346 1306.29 341.874C1306.29 331.401 1297.34 322.912 1286.31 322.912C1275.28 322.912 1266.33 331.401 1266.33 341.874C1266.33 352.346 1275.28 360.835 1286.31 360.835Z" fill="url(#paint3_linear)"/>
<path d="M1286.31 356.282C1296.48 356.282 1304.72 348.459 1304.72 338.808C1304.72 329.157 1296.48 321.333 1286.31 321.333C1276.14 321.333 1267.9 329.157 1267.9 338.808C1267.9 348.459 1276.14 356.282 1286.31 356.282Z" fill="#FFEB3B"/>
<path d="M1336.96 246.162H1331.06V524.009H1336.96V246.162Z" fill="#70DDFF"/>
<path d="M1334.45 249.473C1342.55 249.473 1349.12 243.241 1349.12 235.554C1349.12 227.867 1342.55 221.636 1334.45 221.636C1326.36 221.636 1319.79 227.867 1319.79 235.554C1319.79 243.241 1326.36 249.473 1334.45 249.473Z" fill="#4F79A4"/>
<path d="M1313.38 320.751H1258.37V326.346H1313.38V320.751Z" fill="#70DDFF"/>
<path d="M1334.78 604.208C1345.1 604.208 1353.53 606.554 1353.53 596.759V525.557C1353.51 520.839 1351.54 516.318 1348.02 512.981C1344.51 509.644 1339.75 507.761 1334.78 507.745V507.745C1329.81 507.761 1325.04 509.644 1321.53 512.981C1318.02 516.318 1316.04 520.839 1316.03 525.557V596.759C1316.03 606.554 1324.39 604.208 1334.78 604.208Z" fill="#70DDFF"/>
<g opacity="0.1">
<path opacity="0.1" d="M674.722 441.448C674.722 441.448 674.722 441.28 674.722 441.203C674.8 441.263 674.865 441.336 674.916 441.418C675.101 441.808 675.189 442.232 675.175 442.659C675.168 442.71 675.168 442.762 675.175 442.813C674.942 442.386 674.789 441.924 674.722 441.448Z" fill="black"/>
</g>
<path d="M1028.34 596.191C1028.64 596.191 1028.89 595.958 1028.89 595.67C1028.89 595.382 1028.64 595.149 1028.34 595.149C1028.03 595.149 1027.79 595.382 1027.79 595.67C1027.79 595.958 1028.03 596.191 1028.34 596.191Z" fill="#E8F5FF"/>
<path d="M1023.7 591.255C1024.01 591.255 1024.25 591.022 1024.25 590.734C1024.25 590.446 1024.01 590.213 1023.7 590.213C1023.4 590.213 1023.15 590.446 1023.15 590.734C1023.15 591.022 1023.4 591.255 1023.7 591.255Z" fill="#E8F5FF"/>
<path d="M1021.99 593.6C1022.29 593.6 1022.54 593.367 1022.54 593.079C1022.54 592.791 1022.29 592.558 1021.99 592.558C1021.69 592.558 1021.44 592.791 1021.44 593.079C1021.44 593.367 1021.69 593.6 1021.99 593.6Z" fill="#E8F5FF"/>
<path d="M1020.07 595.455C1020.37 595.455 1020.62 595.222 1020.62 594.934C1020.62 594.646 1020.37 594.413 1020.07 594.413C1019.77 594.413 1019.52 594.646 1019.52 594.934C1019.52 595.222 1019.77 595.455 1020.07 595.455Z" fill="#E8F5FF"/>
<path d="M1025.51 597.003C1025.81 597.003 1026.06 596.77 1026.06 596.482C1026.06 596.194 1025.81 595.961 1025.51 595.961C1025.21 595.961 1024.96 596.194 1024.96 596.482C1024.96 596.77 1025.21 597.003 1025.51 597.003Z" fill="#E8F5FF"/>
<path opacity="0.1" d="M1167.26 597.556C1167.26 597.556 1167.26 597.556 1167.39 597.724C1167.52 597.893 1167.28 597.586 1167.26 597.556Z" fill="black"/>
</g>
<circle cx="197.5" cy="7.04004" r="6.5" fill="#FFEB3B"/>
<circle cx="1110.5" cy="81.04" r="6.5" fill="#DCE7FF"/>
<circle cx="1208.5" cy="44.04" r="3.5" fill="#6C63FF"/>
<circle cx="1071" cy="47.54" r="13" fill="#70DDFF"/>
<defs>
<linearGradient id="paint0_linear" x1="20.5" y1="186.54" x2="124.5" y2="456.54" gradientUnits="userSpaceOnUse">
<stop stop-color="#0470DC"/>
<stop offset="1" stop-color="#70DDFF"/>
</linearGradient>
<linearGradient id="paint1_linear" x1="216" y1="325.569" x2="333" y2="596.569" gradientUnits="userSpaceOnUse">
<stop stop-color="#0470DC"/>
<stop offset="1" stop-color="#6BD7FD"/>
<stop offset="1" stop-color="#70DDFF"/>
</linearGradient>
<linearGradient id="paint2_linear" x1="10422.5" y1="5723.53" x2="10422.5" y2="4784.94" gradientUnits="userSpaceOnUse">
<stop stop-color="#808080" stop-opacity="0.25"/>
<stop offset="0.54" stop-color="#808080" stop-opacity="0.12"/>
<stop offset="1" stop-color="#808080" stop-opacity="0.1"/>
</linearGradient>
<linearGradient id="paint3_linear" x1="-20578" y1="14348" x2="-20578" y2="13409.4" gradientUnits="userSpaceOnUse">
<stop stop-color="#808080" stop-opacity="0.25"/>
<stop offset="0.54" stop-color="#808080" stop-opacity="0.12"/>
<stop offset="1" stop-color="#808080" stop-opacity="0.1"/>
</linearGradient>
<clipPath id="clip0">
<rect x="-63" y="142.54" width="1444" height="653" fill="white"/>
</clipPath>
</defs>
</svg>
